# xmcd
#
# Track frame offsets:
#	150
#	21327
#	41202
#	54005
#	69307
#	92330
#	110535
#	131497
#	149230
#	169047
#	182940
#	198020
#	222790
#
# Disc length: 3251 seconds
#
# Revision: 2
# Processed by: cddbd v1.5.2PL0 Copyright (c) Steve Scherf et al.
# Submitted via: EasyCDDAExtractor 15.3.0.1
#
DISCID=b70cb10d
DTITLE=The Bluebirds [US] - South From Memphis
DYEAR=1996
DGENRE=Blues
TTITLE0=Cleveland, MS.
TTITLE1=Don't Take My Place
TTITLE2=Say Yeah
TTITLE3=Dance For Me Girl
TTITLE4=Tenaha Train
TTITLE5=Run For The Levee
TTITLE6=Dust My Broom
TTITLE7=Good To You Baby
TTITLE8=The Wrong Somebody
TTITLE9=Fannin St.
TTITLE10=Second Hand Love
TTITLE11=I Hear Ya Calling
TTITLE12=Wall To Wall
EXTD=
EXTT0=
EXTT1=
EXTT2=
EXTT3=
EXTT4=
EXTT5=
EXTT6=
EXTT7=
EXTT8=
EXTT9=
EXTT10=
EXTT11=
EXTT12=
PLAYORDER=
